<svg width="34" height="33" viewBox="0 0 34 33" fill="none" xmlns="http://www.w3.org/2000/svg">
<path id="Exclude" fill-rule="evenodd" clip-rule="evenodd" d="M3.61851 30.5087V8.43879C3.61851 7.6421 4.09134 6.9214 4.82214 6.60418L18.3676 0.724399C19.6884 0.151087 21.164 1.11919 21.164 2.55901V30.5087H22.6943V9.15523H28.3104C29.415 9.15523 30.3104 10.0507 30.3104 11.1552V30.5087H32.0543C32.7422 30.5087 33.2999 31.0664 33.2999 31.7544C33.2999 32.4423 32.7422 33 32.0543 33H1.94582C1.25788 33 0.700195 32.4423 0.700195 31.7544C0.700195 31.0664 1.25788 30.5087 1.94582 30.5087H3.61851ZM8.2451 11.3261C8.2451 10.6382 8.80279 10.0805 9.49072 10.0805H15.5409C16.2288 10.0805 16.7865 10.6382 16.7865 11.3261C16.7865 12.0141 16.2288 12.5718 15.5409 12.5718H9.49072C8.80278 12.5718 8.2451 12.0141 8.2451 11.3261ZM9.49072 15.3477C8.80279 15.3477 8.2451 15.9054 8.2451 16.5933C8.2451 17.2813 8.80278 17.839 9.49072 17.839H15.5409C16.2288 17.839 16.7865 17.2813 16.7865 16.5933C16.7865 15.9054 16.2288 15.3477 15.5409 15.3477H9.49072ZM8.2451 21.8605C8.2451 21.1726 8.80279 20.6149 9.49072 20.6149H15.5409C16.2288 20.6149 16.7865 21.1726 16.7865 21.8605C16.7865 22.5485 16.2288 23.1062 15.5409 23.1062H9.49072C8.80278 23.1062 8.2451 22.5485 8.2451 21.8605ZM9.49072 26.0956C8.80279 26.0956 8.2451 26.6533 8.2451 27.3413C8.2451 28.0292 8.80278 28.5869 9.49072 28.5869H15.5409C16.2288 28.5869 16.7865 28.0292 16.7865 27.3413C16.7865 26.6533 16.2288 26.0956 15.5409 26.0956H9.49072Z" fill="#7D7D86"/>
</svg>
