<svg width="176" height="36" viewBox="0 0 176 36" fill="none" xmlns="http://www.w3.org/2000/svg">
<g id="Group">
<g id="Group_2">
<path id="Vector" d="M59.6549 14.8372V2.22327H62.4321V12.3442H68.6902V14.8372H59.6549Z" fill="#001C55"/>
<path id="Vector_2" d="M77.0219 14.8372V13.7953C76.6886 14.1674 76.2813 14.4651 75.8369 14.6884C75.3555 14.9116 74.8001 15.0233 74.1335 15.0233C73.6892 15.0233 73.2448 14.9488 72.8375 14.8372C72.4302 14.7256 72.0969 14.5395 71.8007 14.2791C71.5044 14.0186 71.2822 13.7209 71.0971 13.3488C70.9119 12.9767 70.8379 12.5674 70.8379 12.0837V12.0465C70.8379 11.5256 70.949 11.0419 71.1341 10.6698C71.3193 10.2977 71.5785 9.96279 71.9488 9.70232C72.282 9.44186 72.6894 9.25581 73.1708 9.14418C73.6521 9.03256 74.1706 8.95814 74.726 8.95814C75.2074 8.95814 75.6518 8.99535 76.022 9.06977C76.3923 9.14418 76.7256 9.25581 77.0959 9.36744V9.2186C77.0959 8.62325 76.9108 8.21395 76.5775 7.91628C76.2442 7.6186 75.7258 7.46977 75.0222 7.46977C74.5038 7.46977 74.0224 7.50698 73.6151 7.6186C73.2078 7.69302 72.8005 7.84186 72.3561 7.9907L71.6896 5.90697C72.208 5.68372 72.7634 5.49767 73.3559 5.34884C73.9484 5.2 74.6149 5.12558 75.4296 5.12558C76.9108 5.12558 78.0217 5.49767 78.6882 6.24186C79.3547 6.98604 79.725 7.9907 79.725 9.29302V14.9116H77.0219V14.8372ZM77.0589 10.9674C76.8367 10.8558 76.5405 10.7814 76.2442 10.707C75.948 10.6326 75.6518 10.5953 75.3185 10.5953C74.726 10.5953 74.2817 10.707 73.9484 10.9302C73.6151 11.1535 73.43 11.4884 73.43 11.9349V11.9721C73.43 12.3442 73.5781 12.6419 73.8373 12.8279C74.0965 13.0512 74.4668 13.1256 74.9112 13.1256C75.5407 13.1256 76.0591 12.9767 76.4664 12.6419C76.8367 12.3442 77.0589 11.9349 77.0589 11.414V10.9674Z" fill="#001C55"/>
<path id="Vector_3" d="M99.0175 8.54885C98.7583 9.10699 98.388 9.5535 97.9437 9.92559C97.4993 10.2977 96.9439 10.5954 96.3144 10.7814C95.6849 10.9675 95.0183 11.0791 94.3148 11.0791H92.2411V14.8744H89.4639V2.22327H94.611C95.3516 2.22327 96.0552 2.33489 96.6476 2.52094C97.2401 2.7442 97.7585 3.04187 98.1658 3.41396C98.5732 3.78606 98.9064 4.26978 99.1286 4.79071C99.3508 5.31164 99.4619 5.90699 99.4619 6.57676V6.61396C99.4249 7.35815 99.2767 7.99071 99.0175 8.54885ZM96.6106 6.65117C96.6106 6.01861 96.4255 5.53489 96.0181 5.23722C95.6108 4.90234 95.0553 4.7535 94.3888 4.7535H92.2411V8.62327H94.4258C95.1294 8.62327 95.6478 8.43722 96.0552 8.06513C96.4254 7.65583 96.6106 7.20931 96.6106 6.65117Z" fill="#001C55"/>
<path id="Vector_4" d="M107.756 7.87906C106.831 7.87906 106.127 8.13953 105.609 8.69767C105.09 9.25581 104.831 10.1116 104.831 11.2651V14.8372H102.091V5.16278H104.831V7.09767C105.09 6.4279 105.498 5.90697 105.979 5.49767C106.46 5.08836 107.09 4.90232 107.905 4.93953V7.80464H107.756V7.87906Z" fill="#001C55"/>
<path id="Vector_5" d="M119.458 10.6326C119.458 10.7442 119.458 10.8558 119.421 10.9674H112.718C112.867 11.6 113.126 12.0837 113.533 12.3814C113.94 12.7163 114.459 12.8651 115.051 12.8651C115.496 12.8651 115.903 12.7907 116.273 12.6419C116.644 12.493 117.014 12.2326 117.384 11.8977L118.939 13.2744C118.495 13.8326 117.94 14.2791 117.273 14.6139C116.644 14.9488 115.866 15.0977 114.977 15.0977C114.274 15.0977 113.607 14.986 112.978 14.7256C112.348 14.5023 111.83 14.1302 111.385 13.6837C110.941 13.2372 110.571 12.7163 110.349 12.1209C110.089 11.5256 109.978 10.8186 109.978 10.0744V10.0372C109.978 9.36743 110.089 8.69767 110.312 8.10232C110.534 7.50697 110.867 6.94883 111.274 6.50232C111.682 6.05581 112.2 5.68371 112.755 5.42325C113.348 5.16278 113.977 5.01395 114.681 5.01395C115.496 5.01395 116.162 5.16278 116.755 5.46046C117.347 5.75813 117.829 6.13023 118.236 6.61395C118.643 7.09767 118.902 7.65581 119.088 8.28836C119.273 8.92092 119.384 9.59069 119.384 10.2605V10.2977C119.458 10.4093 119.458 10.5209 119.458 10.6326ZM116.162 7.76743C115.829 7.39534 115.348 7.20929 114.792 7.20929C114.237 7.20929 113.755 7.39534 113.385 7.76743C113.015 8.13953 112.793 8.62325 112.681 9.25581H116.792C116.718 8.66046 116.496 8.13953 116.162 7.76743Z" fill="#001C55"/>
<path id="Vector_6" d="M134.344 14.8372V9.47905C134.344 8.8465 134.196 8.32557 133.936 8.02789C133.677 7.69301 133.27 7.54417 132.752 7.54417C132.233 7.54417 131.826 7.69301 131.53 8.02789C131.233 8.36278 131.085 8.8465 131.085 9.47905V14.8744H128.345V9.47905C128.345 8.8465 128.197 8.32557 127.938 8.02789C127.678 7.69301 127.271 7.54417 126.753 7.54417C126.234 7.54417 125.827 7.69301 125.531 8.02789C125.235 8.36278 125.086 8.8465 125.086 9.47905V14.8744H122.346V5.19999H125.086V6.57673C125.235 6.35347 125.42 6.16743 125.605 5.98138C125.79 5.79533 126.012 5.60929 126.234 5.49766C126.456 5.34882 126.716 5.23719 127.012 5.16278C127.308 5.08836 127.604 5.05115 127.938 5.05115C128.567 5.05115 129.123 5.19998 129.567 5.46045C130.011 5.72092 130.382 6.09301 130.641 6.61394C131.048 6.09301 131.53 5.72092 132.048 5.46045C132.566 5.19998 133.159 5.05115 133.825 5.05115C134.825 5.05115 135.64 5.34882 136.232 5.94417C136.825 6.53952 137.084 7.43254 137.084 8.58603V14.8744H134.344V14.8372Z" fill="#001C55"/>
<path id="Vector_7" d="M140.417 4.12094V1.70233H143.305V4.12094H140.417ZM140.491 14.8372V5.1628H143.231V14.8372H140.491Z" fill="#001C55"/>
<path id="Vector_8" d="M155.636 10.6326C155.636 10.7442 155.636 10.8558 155.599 10.9674H148.896C149.045 11.6 149.304 12.0837 149.711 12.3814C150.118 12.7163 150.637 12.8651 151.229 12.8651C151.674 12.8651 152.081 12.7907 152.451 12.6419C152.822 12.493 153.192 12.2326 153.562 11.8977L155.117 13.2744C154.673 13.8326 154.118 14.2791 153.451 14.614C152.822 14.9488 152.044 15.0977 151.155 15.0977C150.452 15.0977 149.785 14.986 149.156 14.7256C148.526 14.5023 148.008 14.1302 147.563 13.6837C147.119 13.2372 146.749 12.7163 146.527 12.1209C146.267 11.5256 146.156 10.8186 146.156 10.0744V10.0372C146.156 9.36744 146.267 8.69767 146.49 8.10232C146.712 7.50698 147.045 6.94884 147.452 6.50232C147.86 6.05581 148.378 5.68372 148.933 5.42325C149.526 5.16279 150.155 5.01395 150.859 5.01395C151.674 5.01395 152.34 5.16279 152.933 5.46046C153.525 5.75814 154.007 6.13023 154.414 6.61395C154.821 7.09767 155.08 7.65581 155.266 8.28837C155.451 8.92093 155.562 9.5907 155.562 10.2605V10.2977C155.636 10.4093 155.636 10.5209 155.636 10.6326ZM149.933 4.12093L147.637 1.96279L150.007 0.920929L152.044 4.12093H149.933ZM152.34 7.76744C152.007 7.39535 151.526 7.2093 150.97 7.2093C150.415 7.2093 149.933 7.39535 149.563 7.76744C149.193 8.13953 148.971 8.62325 148.859 9.25581H152.97C152.896 8.66046 152.673 8.13953 152.34 7.76744Z" fill="#001C55"/>
<path id="Vector_9" d="M164.227 7.87906C163.301 7.87906 162.598 8.13953 162.079 8.69767C161.561 9.25581 161.301 10.1116 161.301 11.2651V14.8372H158.561V5.16278H161.301V7.09767C161.561 6.4279 161.968 5.90697 162.449 5.49767C162.931 5.08836 163.56 4.90232 164.375 4.93953V7.80464H164.227V7.87906Z" fill="#001C55"/>
<path id="Vector_10" d="M175.965 10.6326C175.965 10.7442 175.965 10.8558 175.928 10.9674H169.226C169.374 11.6 169.633 12.0837 170.04 12.3814C170.448 12.7163 170.966 12.8651 171.559 12.8651C172.003 12.8651 172.41 12.7907 172.781 12.6419C173.151 12.493 173.521 12.2326 173.892 11.8977L175.447 13.2744C175.002 13.8326 174.447 14.2791 173.78 14.6139C173.151 14.9488 172.373 15.0977 171.485 15.0977C170.781 15.0977 170.115 14.986 169.485 14.7256C168.855 14.5023 168.337 14.1302 167.893 13.6837C167.448 13.2372 167.078 12.7163 166.856 12.1209C166.597 11.5256 166.486 10.8186 166.486 10.0744V10.0372C166.486 9.36743 166.597 8.69767 166.819 8.10232C167.041 7.50697 167.374 6.94883 167.782 6.50232C168.189 6.05581 168.707 5.68371 169.263 5.42325C169.855 5.16278 170.485 5.01395 171.188 5.01395C172.003 5.01395 172.67 5.16278 173.262 5.46046C173.855 5.75813 174.336 6.13023 174.743 6.61395C175.151 7.09767 175.41 7.65581 175.595 8.28836C175.78 8.92092 175.891 9.59069 175.891 10.2605V10.2977C175.965 10.4093 175.965 10.5209 175.965 10.6326ZM172.67 7.76743C172.336 7.39534 171.855 7.20929 171.299 7.20929C170.744 7.20929 170.263 7.39534 169.892 7.76743C169.522 8.13953 169.3 8.62325 169.189 9.25581H173.299C173.225 8.66046 173.003 8.13953 172.67 7.76743Z" fill="#001C55"/>
<path id="Vector_11" d="M69.9862 30.1674C69.764 30.614 69.4307 30.9488 69.0234 31.2465C68.6161 31.5442 68.0977 31.7674 67.5422 31.8791C66.9498 32.0279 66.3203 32.1023 65.6167 32.1023H59.6549V19.4884H65.4686C66.7646 19.4884 67.7644 19.786 68.505 20.3814C69.2456 20.9767 69.6159 21.7581 69.6159 22.7628V22.8C69.6159 23.1721 69.5789 23.4698 69.4678 23.7674C69.3937 24.0279 69.2456 24.2884 69.0975 24.5116C68.9494 24.7349 68.7642 24.9209 68.5791 25.107C68.3939 25.293 68.1717 25.4047 67.9496 25.5535C68.6902 25.814 69.2456 26.2233 69.6529 26.6698C70.0603 27.1535 70.2824 27.786 70.2824 28.6419V28.6791C70.3195 29.2372 70.2084 29.7581 69.9862 30.1674ZM66.8757 23.2093C66.8757 22.8 66.7276 22.4651 66.3943 22.2419C66.0981 22.0186 65.6167 21.907 65.0612 21.907H62.321V24.586H64.8761C65.4686 24.586 65.987 24.4744 66.3203 24.2884C66.7276 24.0651 66.8757 23.7302 66.8757 23.2093ZM67.5793 28.2698C67.5793 27.8605 67.4311 27.5256 67.0979 27.2651C66.7646 27.0047 66.2462 26.893 65.5426 26.893H62.3581V29.6837H65.6537C66.2462 29.6837 66.7276 29.5721 67.0979 29.3488C67.4311 29.1256 67.5793 28.7907 67.5793 28.2698Z" fill="#001C55"/>
<path id="Vector_12" d="M78.8733 25.1442C77.9476 25.1442 77.244 25.4047 76.7256 25.9628C76.2072 26.5209 75.948 27.3768 75.948 28.5302V32.1023H73.2078V22.4279H75.948V24.3628C76.2072 23.693 76.6145 23.1721 77.0959 22.7628C77.5773 22.3535 78.2068 22.1675 79.0214 22.2047V25.0698H78.8733V25.1442Z" fill="#001C55"/>
<path id="Vector_13" d="M81.7616 32.1395V22.4651H84.5018V32.1395H81.7616Z" fill="#001C55"/>
<path id="Vector_14" d="M94.9072 35.0047V30.7628C94.574 31.2093 94.1666 31.5814 93.6853 31.8791C93.2039 32.1768 92.6114 32.3256 91.9078 32.3256C91.3524 32.3256 90.7969 32.214 90.2785 31.9907C89.7601 31.7674 89.2787 31.4698 88.8714 31.0233C88.4641 30.614 88.1308 30.0558 87.9086 29.4605C87.6494 28.8279 87.5383 28.1209 87.5383 27.3395V27.3023C87.5383 26.4837 87.6494 25.7768 87.9086 25.1814C88.1678 24.5488 88.4641 24.0279 88.8714 23.6186C89.2787 23.2093 89.7231 22.8744 90.2785 22.6512C90.7969 22.4279 91.3524 22.3163 91.9449 22.3163C92.6855 22.3163 93.2779 22.4651 93.7593 22.7628C94.2407 23.0605 94.648 23.3954 94.9443 23.7674V22.5023H97.6845V35.0791H94.9072V35.0047ZM94.9443 27.2651C94.9443 26.8558 94.8702 26.4837 94.7591 26.1488C94.648 25.814 94.4629 25.5163 94.2407 25.293C94.0185 25.0698 93.7963 24.8837 93.5001 24.7349C93.2039 24.6233 92.9076 24.5488 92.6114 24.5488C92.3152 24.5488 91.9819 24.6233 91.7227 24.7349C91.4265 24.8465 91.2043 25.0326 90.9821 25.293C90.7599 25.5163 90.6118 25.814 90.4637 26.1488C90.3526 26.4837 90.2785 26.8558 90.2785 27.2651V27.3023C90.2785 27.7116 90.3526 28.0837 90.4637 28.4186C90.5748 28.7535 90.7599 29.0512 90.9821 29.2744C91.2043 29.4977 91.4635 29.6837 91.7227 29.8326C92.0189 29.9442 92.3152 30.0186 92.6114 30.0186C92.9076 30.0186 93.2409 29.9442 93.5001 29.8326C93.7963 29.7209 94.0185 29.5349 94.2407 29.2744C94.4629 29.0512 94.611 28.7535 94.7591 28.4186C94.8702 28.0837 94.9443 27.7116 94.9443 27.2651Z" fill="#001C55"/>
<path id="Vector_15" d="M106.979 32.1395V30.7628C106.831 30.986 106.646 31.1721 106.46 31.3581C106.275 31.5442 106.053 31.7302 105.831 31.8419C105.609 31.9535 105.35 32.1023 105.09 32.1767C104.831 32.2512 104.498 32.2884 104.165 32.2884C103.128 32.2884 102.313 31.9535 101.758 31.3209C101.202 30.6884 100.906 29.7954 100.906 28.6791V22.4651H103.646V27.8233C103.646 28.4558 103.794 28.9767 104.091 29.2744C104.387 29.6093 104.794 29.7581 105.313 29.7581C105.831 29.7581 106.238 29.6093 106.572 29.2744C106.868 28.9395 107.016 28.4558 107.016 27.8233V22.4651H109.756V32.1395H106.979Z" fill="#001C55"/>
<path id="Vector_16" d="M122.013 27.8977C122.013 28.0093 122.013 28.1209 121.976 28.2325H115.274C115.422 28.8651 115.681 29.3488 116.088 29.6465C116.496 29.9814 117.014 30.1302 117.606 30.1302C118.051 30.1302 118.458 30.0558 118.828 29.907C119.199 29.7581 119.569 29.4977 119.939 29.1628L121.495 30.5395C121.05 31.0977 120.495 31.5442 119.828 31.8791C119.162 32.2139 118.421 32.3628 117.532 32.3628C116.829 32.3628 116.162 32.2511 115.533 31.9907C114.903 31.7674 114.385 31.3953 113.94 30.9488C113.496 30.5023 113.126 29.9814 112.904 29.386C112.644 28.7907 112.533 28.0837 112.533 27.3395V27.3023C112.533 26.6325 112.644 25.9628 112.867 25.3674C113.089 24.7721 113.422 24.2139 113.829 23.7674C114.237 23.3209 114.755 22.9488 115.311 22.6884C115.903 22.4279 116.533 22.2791 117.236 22.2791C118.051 22.2791 118.717 22.4279 119.31 22.7256C119.902 23.0232 120.384 23.3953 120.791 23.8791C121.198 24.3628 121.457 24.9209 121.643 25.5535C121.828 26.186 121.939 26.8558 121.939 27.5256V27.5628C122.05 27.6744 122.013 27.786 122.013 27.8977ZM118.717 25.0325C118.384 24.6604 117.903 24.4744 117.347 24.4744C116.792 24.4744 116.31 24.6604 115.94 25.0325C115.57 25.4046 115.348 25.8884 115.237 26.5209H119.347C119.31 25.9256 119.088 25.4046 118.717 25.0325Z" fill="#001C55"/>
<path id="Vector_17" d="M84.5759 18.9674H81.6876V21.386H84.5759V18.9674Z" fill="#FBC90D"/>
</g>
<g id="Group_3">
<path id="Vector_18" d="M11.22 1.88837L0 5.53488V14.3163L10.5164 18.2605V9.47907L21.5883 5.53488L11.22 1.88837Z" fill="#001C55"/>
<path id="Vector_19" d="M46.3611 5.53488L35.1782 1.88837L24.7728 5.53488L35.8817 9.47907V18.2605L46.3611 14.3163V5.53488Z" fill="#F46964"/>
<path id="Vector_20" d="M23.2176 6.09302L11.9606 10.0372V18.7814L23.2176 23.0233L34.4376 18.8186V10.0372L23.2176 6.09302Z" fill="#FEDC47"/>
<path id="Vector_21" d="M22.477 24.2139V32.9953L0 24.5488V15.7674L22.477 24.2139Z" fill="#001C55"/>
<path id="Vector_22" d="M46.3611 24.5488V15.7674L23.9211 24.2139V32.9953L46.3611 24.5488Z" fill="#F46964"/>
<path id="Vector_23" d="M0 14.3163L10.5164 18.2605V9.47907L0 5.53488V14.3163Z" fill="#001C55"/>
<path id="Vector_24" d="M23.2176 23.0232L34.4376 18.8186V10.0372L23.1805 14.2419L23.2176 23.0232Z" fill="#FBC90D"/>
<path id="Vector_25" d="M11.9606 10.0372V18.7814L23.2176 23.0232L23.1806 14.2419L11.9606 10.0372Z" fill="#FEDC47"/>
<path id="Vector_26" d="M35.8818 9.47907V18.2605L46.3612 14.3163V5.53488L35.8818 9.47907Z" fill="#F46964"/>
<path id="Vector_27" d="M23.2176 6.09302L34.4376 10.0372L23.1806 14.2419L11.9606 10.0372L23.2176 6.09302Z" fill="#F7B00F"/>
<path id="Vector_28" d="M35.1782 1.88837L46.3611 5.53488L35.8817 9.47906L24.7728 5.53488L35.1782 1.88837Z" fill="#F2453F"/>
<path id="Vector_29" d="M11.22 1.88837L0 5.53488L10.5164 9.47906L21.5883 5.53488L11.22 1.88837Z" fill="#001C55"/>
</g>
</g>
</svg>
