<svg width="30" height="32" viewBox="0 0 30 32" fill="none" xmlns="http://www.w3.org/2000/svg">
<g id="Group 10">
<ellipse id="Ellipse 790" cx="15" cy="16" rx="15" ry="15.0698" fill="#F2453F"/>
<ellipse id="Ellipse 791" cx="14.9999" cy="16" rx="11.4706" ry="11.5239" fill="white"/>
<path id="Union" fill-rule="evenodd" clip-rule="evenodd" d="M23.7949 25.3686C26.2228 23.0701 27.7384 19.8098 27.7384 16.1938C27.7384 9.23265 22.1214 3.58951 15.1924 3.58951C8.2635 3.58951 2.64648 9.23265 2.64648 16.1938C2.64648 19.8098 4.1621 23.0701 6.58994 25.3686C8.83597 27.495 11.8627 28.7981 15.1924 28.7981C18.5222 28.7981 21.5489 27.495 23.7949 25.3686ZM7.65859 23.7077C9.42724 21.4912 12.1449 20.0721 15.1924 20.0721C18.24 20.0721 20.9576 21.4912 22.7263 23.7077C20.8031 25.6539 18.1378 26.859 15.1924 26.859C12.247 26.859 9.58179 25.6539 7.65859 23.7077ZM20.0178 12.3156C20.0178 14.9929 17.8574 17.1634 15.1924 17.1634C12.5275 17.1634 10.3671 14.9929 10.3671 12.3156C10.3671 9.6382 12.5275 7.46776 15.1924 7.46776C17.8574 7.46776 20.0178 9.6382 20.0178 12.3156Z" fill="#001C55"/>
</g>
</svg>
